# xmcd
#
# Track frame offsets:
#	150
#	12457
#	23137
#	36765
#	51190
#	63010
#	75890
#	85630
#	96112
#	108887
#	120812
#	128955
#	136955
#	147950
#	161350
#	175175
#	190400
#	202630
#	213987
#	227382
#	241297
#	252495
#	262772
#	275030
#	287690
#	297060
#	306315
#	316007
#	326600
#	339525
#
# Disc length: 4690 seconds
#
# Revision: 1
# Processed by: cddbd v1.4PL0 Copyright (c) Steve Scherf et al.
# Submitted via: MusicWizard 6.0.2
#
DISCID=8f12501e
DTITLE=Dean Martin - Everybody Loves Somebody   Vol. 2
DYEAR=1900
DGENRE=Vocal
TTITLE0=Sam's Song
TTITLE1=Any Time
TTITLE2=Room Full Of Roses
TTITLE3=My Heart Cries For You
TTITLE4=I'm So Lonesome I Could Cry
TTITLE5=Shutters And Boards
TTITLE6=Singing The Blues
TTITLE7=Ain't Gonna Try Anymore
TTITLE8=Face In A Crowd
TTITLE9=Things
TTITLE10=Blue, Blue Day
TTITLE11=Hey, Good Lookin'
TTITLE12=I Walk The Line
TTITLE13=My Sugar's Gone
TTITLE14=Candy Kisses
TTITLE15=Take Good Care Of Her
TTITLE16=I Can't Help It ( If I'm Still In Love With You)
TTITLE17=I'm Gonna Change Everything
TTITLE18=Bouquet Of Roses
TTITLE19=From Lover To Loser
TTITLE20=Rockin' Alone (In An Old Rockin' Chair)
TTITLE21=Second Hand Rose
TTITLE22=Corrine, Corrina
TTITLE23=The Middle Of The Night Is My Cryin' Time
TTITLE24=Just A Little Lovin'
TTITLE25=Via Vento
TTITLE26=Mama Roma
TTITLE27=Grazie, Prego, Scusi
TTITLE28=Marina
TTITLE29=Take Me
EXTD=
EXTT0=
EXTT1=
EXTT2=
EXTT3=
EXTT4=
EXTT5=
EXTT6=
EXTT7=
EXTT8=
EXTT9=
EXTT10=
EXTT11=
EXTT12=
EXTT13=
EXTT14=
EXTT15=
EXTT16=
EXTT17=
EXTT18=
EXTT19=
EXTT20=
EXTT21=
EXTT22=
EXTT23=
EXTT24=
EXTT25=
EXTT26=
EXTT27=
EXTT28=
EXTT29=
PLAYORDER=
